<svg xmlns="http://www.w3.org/2000/svg" width="50" height="50" viewBox="0 0 50 50"><rect width="100%" height="100%" fill="#cccccc"/><path fill="#ffffff" d="M14.145 20.485h1.19v7.23h-.69q-.16 0-.27-.05-.1-.05-.21-.18l-3.77-4.82q.03.33.03.61v4.44h-1.19v-7.23h.71q.09 0 .15.01t.11.03q.04.02.09.06.04.05.1.11l3.79 4.84q-.02-.17-.02-.34-.02-.17-.02-.31zm4.87 2.02q.58 0 1.04.18.47.19.8.53t.52.83q.18.49.18 1.09 0 .61-.18 1.1-.19.5-.52.84-.33.35-.8.53-.46.18-1.04.18-.57 0-1.04-.18t-.8-.53q-.33-.34-.52-.84-.18-.49-.18-1.1 0-.6.18-1.09.19-.49.52-.83t.8-.53q.47-.18 1.04-.18m0 4.33q.64 0 .95-.42.31-.44.31-1.26 0-.84-.31-1.27t-.95-.43-.96.43q-.31.44-.31 1.27 0 .82.31 1.25.32.43.96.43m7.46-6.35v7.23h-1.35v-7.23zm2.65 7.23h-1.23v-5.13h.75q.24 0 .32.22l.08.38q.13-.14.28-.27.15-.12.31-.21.17-.1.36-.15.2-.05.43-.05.48 0 .79.26.32.26.47.7.12-.25.3-.44.18-.18.4-.3.21-.11.45-.17.24-.05.49-.05.42 0 .75.13t.56.38.34.61q.12.36.12.82v3.27h-1.23v-3.27q0-.48-.22-.73-.21-.25-.63-.25-.19 0-.35.06-.17.07-.29.19t-.19.31-.07.42v3.27h-1.24v-3.27q0-.51-.21-.74-.2-.24-.6-.24-.27 0-.51.13-.23.14-.43.37zm9.02-2.69q.23 0 .4-.06t.28-.18q.11-.11.17-.26.06-.16.06-.34 0-.38-.23-.6-.23-.23-.68-.23-.46 0-.69.23-.23.22-.23.6 0 .18.06.33.06.16.17.27.12.12.29.18t.4.06m1.39 2.92q0-.15-.09-.24-.09-.1-.24-.15-.16-.05-.37-.08-.2-.03-.44-.04l-.48-.02q-.24-.01-.48-.04-.21.11-.33.27-.13.16-.13.36 0 .13.07.25t.21.2q.15.09.39.14.23.05.57.05.35 0 .6-.06.25-.05.41-.14t.24-.22q.07-.13.07-.28m-.24-5.19h1.47v.46q0 .22-.26.28l-.46.08q.1.26.1.58 0 .38-.15.69t-.42.52-.64.33-.79.12q-.16 0-.29-.02-.14-.01-.28-.04-.24.15-.24.33 0 .15.14.23.15.07.38.1.24.03.54.04.3 0 .61.03.32.02.62.09.29.06.53.19.24.14.38.37t.14.6q0 .34-.17.66-.16.32-.48.57t-.78.4-1.05.15q-.58 0-1.01-.11t-.72-.3q-.28-.18-.42-.43-.15-.25-.15-.51 0-.36.22-.6.22-.25.6-.39-.2-.11-.32-.28t-.12-.46q0-.12.04-.24t.12-.24q.09-.12.21-.23.13-.11.3-.19-.39-.21-.62-.56-.22-.35-.22-.82 0-.38.15-.69.16-.3.43-.52t.64-.34q.38-.11.82-.11.33 0 .62.07t.53.19"/></svg>